<svg xmlns="http://www.w3.org/2000/svg" xmlns:xlink="http://www.w3.org/1999/xlink" version="1.1" x="0px" y="0px" viewBox="0 0 3876.8 4836.5" style="enable-background:new 0 0 3876.8 3869.2;" xml:space="preserve"><g><g><path d="M3530.1,2782.2H346.6c-95.1,0-172.5-83.9-172.5-187.1V590.6c0-103.1,77.4-187,172.5-187h3183.5    c95.1,0,172.5,83.9,172.5,187v2004.6C3702.6,2698.3,3625.2,2782.2,3530.1,2782.2z M346.6,524.7c-27.8,0-51.3,30.2-51.3,65.9    v2004.6c0,35.7,23.5,65.9,51.3,65.9h3183.5c27.8,0,51.3-30.2,51.3-65.9V590.6c0-35.7-23.5-65.9-51.3-65.9L346.6,524.7L346.6,524.7    z"/></g><g><path d="M1718.8,3114c-33.5,0-60.6-27.1-60.6-60.6v-331.8c0-33.5,27.1-60.6,60.6-60.6s60.6,27.1,60.6,60.6v331.8    C1779.4,3086.9,1752.3,3114,1718.8,3114z"/></g><g><path d="M2157.9,3114c-33.5,0-60.6-27.1-60.6-60.6v-331.8c0-33.5,27.1-60.6,60.6-60.6c33.5,0,60.6,27.1,60.6,60.6v331.8    C2218.5,3086.9,2191.4,3114,2157.9,3114z"/></g><g><path d="M2631.7,3465.6H1245c-33.5,0-60.6-27.1-60.6-60.6v-128.5c0-156.4,127.3-283.7,283.7-283.7h940.5    c156.4,0,283.7,127.3,283.7,283.7v128.5C2692.3,3438.5,2665.2,3465.6,2631.7,3465.6z M2571.2,3344.5v-68    c0-89.6-72.9-162.5-162.5-162.5h-940.5c-89.6,0-162.5,72.9-162.5,162.5v68C1328,3344.5,2549,3344.5,2571.2,3344.5z"/></g><g><path d="M3642,2379H234.7c-33.5,0-60.6-27.1-60.6-60.6s27.1-60.6,60.6-60.6H3642c33.5,0,60.6,27.1,60.6,60.6    S3675.5,2379,3642,2379z"/></g><g><path d="M3398,2580.6h-120.7c-33.5,0-60.6-27.1-60.6-60.6c0-33.5,27.1-60.6,60.6-60.6H3398c33.5,0,60.6,27.1,60.6,60.6    C3458.6,2553.5,3431.5,2580.6,3398,2580.6z"/></g><g><path d="M2985.4,2580.6h-120.7c-33.5,0-60.6-27.1-60.6-60.6c0-33.5,27.1-60.6,60.6-60.6h120.7c33.5,0,60.6,27.1,60.6,60.6    C3046,2553.5,3018.9,2580.6,2985.4,2580.6z"/></g><g><path d="M2572.8,2580.6h-120.7c-33.5,0-60.6-27.1-60.6-60.6c0-33.5,27.1-60.6,60.6-60.6h120.7c33.5,0,60.6,27.1,60.6,60.6    C2633.4,2553.5,2606.3,2580.6,2572.8,2580.6z"/></g><g><g><g><path d="M968,1616.9h-52.6c-41.6,0-78.6-24.9-94.2-63.4l-29.1-71.7l-71.3,30.1c-38.3,16.2-82.1,7.6-111.5-21.8l-37.2-37.2      c-29.4-29.4-38-73.2-21.8-111.5l30.1-71.3l-71.7-29.1c-38.5-15.6-63.4-52.6-63.4-94.2v-52.6c0-41.6,24.9-78.6,63.4-94.2      l71.7-29.1l-30.1-71.3c-16.2-38.3-7.6-82.1,21.8-111.5l37.2-37.2c29.4-29.4,73.2-38,111.5-21.8l71.3,30.1l29.1-71.7      c15.6-38.5,52.6-63.4,94.2-63.4H968c41.6,0,78.6,24.9,94.2,63.4l29.1,71.7l71.3-30.1c38.3-16.2,82.1-7.6,111.5,21.8l37.2,37.2      c29.4,29.4,37.9,73.2,21.8,111.5l-30.1,71.3l71.7,29.1l0,0c38.5,15.6,63.4,52.6,63.4,94.2v52.6c0,41.6-24.9,78.6-63.4,94.2      l-71.7,29.1l30.1,71.3c16.2,38.3,7.6,82.1-21.8,111.5l-37.2,37.2c-29.4,29.4-73.2,37.9-111.5,21.8l-71.3-30.1l-29.1,71.7      C1046.5,1592,1009.6,1616.9,968,1616.9z M928.5,1495.8h26.4l31.6-77.9c21.4-52.6,81.5-77.5,133.8-55.4l77.4,32.7l18.6-18.6      l-32.7-77.4c-22.1-52.3,2.8-112.4,55.4-133.8l77.9-31.6v-26.4l-77.9-31.6c-52.6-21.4-77.5-81.5-55.4-133.8l32.7-77.4l-18.6-18.6      l-77.4,32.7c-52.3,22.1-112.4-2.8-133.8-55.4l-31.6-77.9h-26.4l-31.6,77.9c-21.4,52.6-81.5,77.5-133.8,55.4l-77.4-32.7      l-18.6,18.6l32.7,77.4c22.1,52.3-2.8,112.4-55.4,133.8l-77.9,31.6v26.4l77.9,31.6c52.6,21.4,77.5,81.5,55.4,133.8l-32.7,77.4      l18.6,18.6l77.4-32.7c52.3-22.1,112.4,2.8,133.8,55.4L928.5,1495.8z M1329,1112.3C1329,1112.3,1329,1112.3,1329,1112.3      L1329,1112.3z"/></g><g><path d="M941.7,1327.1c-113.9,0-206.5-92.6-206.5-206.5s92.6-206.5,206.5-206.5s206.5,92.6,206.5,206.5      S1055.6,1327.1,941.7,1327.1z M941.7,1035.2c-47.1,0-85.3,38.3-85.3,85.3c0,47.1,38.3,85.3,85.3,85.3s85.3-38.3,85.3-85.3      S988.7,1035.2,941.7,1035.2z"/></g></g><g><g><path d="M3370.9,884H1702.5c-33.5,0-60.6-27.1-60.6-60.6c0-33.5,27.1-60.6,60.6-60.6h1668.4c33.5,0,60.6,27.1,60.6,60.6      C3431.4,856.9,3404.3,884,3370.9,884z"/></g><g><path d="M3370.9,1181.2H1702.5c-33.5,0-60.6-27.1-60.6-60.6s27.1-60.6,60.6-60.6h1668.4c33.5,0,60.6,27.1,60.6,60.6      C3431.4,1154,3404.3,1181.2,3370.9,1181.2z"/></g><g><path d="M3370.9,1478.3H1702.5c-33.5,0-60.6-27.1-60.6-60.6c0-33.5,27.1-60.6,60.6-60.6h1668.4c33.5,0,60.6,27.1,60.6,60.6      C3431.4,1451.2,3404.3,1478.3,3370.9,1478.3z"/></g></g></g><g><g><g><g><path d="M3130.5,2112.9c-24.2-23.1-25.1-61.4-2-85.6l86.3-90.4l-86.3-90.4c-23.1-24.2-22.2-62.6,2-85.6       c24.2-23.1,62.6-22.2,85.6,2l126.1,132.2c22.3,23.4,22.3,60.2,0,83.6l-126.1,132.2C3193.1,2135.1,3154.7,2136,3130.5,2112.9z"/></g><g><path d="M2618.3,2110.9l-126.1-132.2c-22.3-23.4-22.3-60.2,0-83.6l126.1-132.2c23.1-24.2,61.4-25.1,85.6-2       c24.2,23.1,25.1,61.4,2,85.6l-86.3,90.4l86.3,90.4c23.1,24.2,22.2,62.6-2,85.6C2679.8,2135.9,2641.4,2135.1,2618.3,2110.9z"/></g></g><g><path d="M2841.7,2155c-31.6-10.9-48.4-45.4-37.4-77.1l111.4-321.9c10.9-31.6,45.4-48.4,77.1-37.4c31.6,10.9,48.4,45.4,37.4,77.1      l-111.4,321.9C2907.9,2149.1,2873.4,2166,2841.7,2155z"/></g></g><g><g><g><path d="M1172.8,2112.9c-24.2-23.1-25.1-61.4-2-85.6l86.3-90.4l-86.3-90.4c-23.1-24.2-22.2-62.6,2-85.6       c24.2-23.1,62.6-22.2,85.6,2l126.1,132.2c22.3,23.4,22.3,60.2,0,83.6l-126.1,132.2C1235.4,2135.1,1197.1,2136,1172.8,2112.9z"/></g><g><path d="M660.6,2110.9l-126.1-132.2c-22.3-23.4-22.3-60.2,0-83.6l126.1-132.2c23.1-24.2,61.4-25.1,85.6-2       c24.2,23.1,25.1,61.4,2,85.6l-86.3,90.4l86.3,90.4c23.1,24.2,22.2,62.6-2,85.6C722.1,2135.9,683.7,2135.1,660.6,2110.9z"/></g></g><g><path d="M884.1,2155c-31.6-10.9-48.4-45.4-37.4-77.1L958,1756.1c10.9-31.6,45.4-48.4,77.1-37.4c31.6,10.9,48.4,45.4,37.4,77.1      l-111.4,321.9C950.2,2149.1,915.7,2166,884.1,2155z"/></g></g></g></g></svg>