<svg xmlns="http://www.w3.org/2000/svg" data-name="Layer 1" viewBox="0 0 93 116.25" x="0px" y="0px"><defs><style>.cls-1{fill-rule:evenodd;}</style></defs><title>a</title><path class="cls-1" d="M75.271,58.919v-.214a.215.215,0,1,1,.215.214Zm2.347,6.725a8.863,8.863,0,1,0-10.211,0,2.82,2.82,0,0,1,1.09,1.518h1.256V61.028h-.214a2.324,2.324,0,1,1,2.324-2.323v.214h1.3v-.214a2.324,2.324,0,1,1,2.324,2.323h-.215v6.134h1.257a2.81,2.81,0,0,1,1.09-1.518Zm-5.755,1.518V61.028h1.3v6.134Zm-2.11-8.243h-.214a.215.215,0,1,1,.214-.214v.214Zm6.661,11.148a.337.337,0,0,1-.332.334H68.943a.338.338,0,0,1-.332-.334v-.8h7.8v.8Zm-3.9,3.159a2.873,2.873,0,0,1-1.891-.716h3.784a2.878,2.878,0,0,1-1.893.716Zm0-25.8a10.973,10.973,0,0,0-6.321,19.941.686.686,0,0,1,.311.6v2.1a2.444,2.444,0,0,0,1.423,2.217,4.974,4.974,0,0,0,9.175,0,2.445,2.445,0,0,0,1.424-2.217v-2.1a.685.685,0,0,1,.31-.6,10.973,10.973,0,0,0-6.322-19.941ZM87.861,67.056a16.179,16.179,0,0,0-3.1-17.548C80.037,44.5,71.311,42.993,63.54,45.837c-6.79,2.488-10.881,7.5-11.222,13.746-.03.574.865,1.709,1.4,2.388.208.262.4.508.566.738a1.053,1.053,0,0,1,.033,1.176c-2.5,3.964-3.757,5.878-4.417,6.836a14.147,14.147,0,0,1,2.672,2.4,1.053,1.053,0,0,1,.1,1.088l-1.241,2.561,1.3.963a1.057,1.057,0,0,1,.085,1.623l-.244.225,1.053.549a1.054,1.054,0,0,1,.516,1.258c-1.006,3.125-.528,4.073-.275,4.335.4.415,1.45.422,2.887.021a.6.6,0,0,1,.086-.021l6.188-1.187a1.053,1.053,0,0,1,1.07.442,21.763,21.763,0,0,1,2.392,4.412H86.284A17.012,17.012,0,0,1,82.825,79.02a17.66,17.66,0,0,1,5.036-11.964Zm-40.717,5.82V44.459h9.43v2.88a16.592,16.592,0,0,0-6.362,12.13c-.074,1.37.993,2.721,1.849,3.808l.081.1c-3.413,5.392-4.286,6.617-4.5,6.861a1.052,1.052,0,0,0,.16,1.535c.573.432,1.038.794,1.422,1.1ZM66.176,31.228h9.43V42.645c-.083-.012-.162-.03-.245-.042a25.386,25.386,0,0,0-9.185.29V31.228ZM89.719,68.076A18.29,18.29,0,0,0,86.3,48.061a18.071,18.071,0,0,0-8.58-4.959V30.174a1.056,1.056,0,0,0-1.055-1.055H65.122a1.056,1.056,0,0,0-1.055,1.055V43.439q-.633.193-1.252.419a22.864,22.864,0,0,0-4.132,1.992V43.405a1.056,1.056,0,0,0-1.054-1.055H46.09a1.056,1.056,0,0,0-1.055,1.055V73.931a1.054,1.054,0,0,0,1.055,1.054h3.864l-.8,1.653a1.053,1.053,0,0,0,.32,1.306l.979.726-.41.379a1.054,1.054,0,0,0,.227,1.709l1.61.84c-.731,2.67-.576,4.5.468,5.588,1.005,1.045,2.617,1.242,4.932.6l5.458-1.046a17.084,17.084,0,0,1,2,4.023,1.057,1.057,0,0,0,1.006.735H88.527a1.055,1.055,0,0,0,.774-1.772c-5.933-6.4-5.845-14.98.217-21.354a1.043,1.043,0,0,0,.2-.3ZM18.646,3.668a9.6,9.6,0,0,1,8.468,8.467H18.646V3.668ZM17.591,14.244H28.227a1.056,1.056,0,0,0,1.055-1.054A11.7,11.7,0,0,0,17.591,1.5a1.054,1.054,0,0,0-1.055,1.055V13.19a1.055,1.055,0,0,0,1.055,1.054ZM3.807,17.393a9.581,9.581,0,0,0,19.1,1.054H13.387a1.054,1.054,0,0,1-1.054-1.054V7.87a9.594,9.594,0,0,0-8.526,9.523Zm17.848,8.266a11.609,11.609,0,0,0,3.422-8.266,1.055,1.055,0,0,0-1.054-1.056H14.442V6.757A1.056,1.056,0,0,0,13.387,5.7a11.691,11.691,0,1,0,8.268,19.956ZM9.452,40.921a1.055,1.055,0,0,0,1.4,1.58L32.935,22.972,51.3,34.51a1.053,1.053,0,0,0,1.3-.137L69.522,17.9l-.728,6.48a1.053,1.053,0,0,0,.929,1.165c.041,0,.08.007.12.007a1.055,1.055,0,0,0,1.047-.937l1.048-9.337a1.053,1.053,0,0,0-.265-.824,1.028,1.028,0,0,0-.794-.349l-9.394.1a1.055,1.055,0,0,0,.01,2.109h.012l6.691-.071L51.719,32.283,33.388,20.765a1.056,1.056,0,0,0-1.259.1L9.452,40.921Zm28.09,31.955h-9.43V37.725h9.43V72.876ZM38.6,35.615a1.056,1.056,0,0,1,1.055,1.055V73.931A1.054,1.054,0,0,1,38.6,74.985H27.058A1.054,1.054,0,0,1,26,73.931V36.67a1.056,1.056,0,0,1,1.054-1.055ZM18.51,72.876H9.081V51.338H18.51V72.876Zm1.054-23.648H8.026a1.056,1.056,0,0,0-1.055,1.055V73.931a1.055,1.055,0,0,0,1.055,1.054H19.564a1.054,1.054,0,0,0,1.055-1.054V50.283A1.056,1.056,0,0,0,19.564,49.228Z"/></svg>