<svg xmlns="http://www.w3.org/2000/svg" data-name="Layer 1" viewBox="0 0 64 80" x="0px" y="0px"><title>Artboard 7</title><path d="M23,20.86a3.86,3.86,0,0,0-2.76-3.69,2.91,2.91,0,1,0-3.63,0,3.86,3.86,0,0,0-2.76,3.69v2H23Z"/><path d="M23,28.09A11.62,11.62,0,0,0,29.09,22a13.33,13.33,0,0,0,.64-2A11.4,11.4,0,0,0,30,17.5a11.25,11.25,0,0,0-.55-3.5A11.48,11.48,0,1,0,23,28.09ZM9,17.5a9.5,9.5,0,0,1,19-.34,10.67,10.67,0,0,1-.62,3.51,10.94,10.94,0,0,1-1.47,2.79A9.5,9.5,0,0,1,9,17.5Z"/><path d="M55,50H19a1,1,0,0,0-1,1v8a1,1,0,0,0,1,1H55a1,1,0,0,0,1-1V51A1,1,0,0,0,55,50Z"/><path d="M51,15a1,1,0,0,0-1-1H30.5a12.29,12.29,0,0,1,.5,3.5,12.84,12.84,0,0,1-.25,2.5H35v2H30.16A12.56,12.56,0,0,1,23,29.16V49H51ZM35,46H28V44h7Zm0-6H28V38h7Zm0-6H28V32h7Zm0-6H28V26h7ZM46,46H39V44h7Zm0-6H39V38h7Zm0-6H39V32h7Zm0-6H39V26h7Zm0-6H39V20h7Z"/></svg>