<svg xmlns="http://www.w3.org/2000/svg" xmlns:xlink="http://www.w3.org/1999/xlink" version="1.1" x="0px" y="0px" viewBox="0 0 64 80" style="enable-background:new 0 0 64 64;" xml:space="preserve"><path d="M43.5,12.138c0-1.792-1.458-3.25-3.25-3.25h-8.051c-1.792,0-3.25,1.458-3.25,3.25v1.395c0,1.792,1.458,3.25,3.25,3.25h8.051  c1.792,0,3.25-1.458,3.25-3.25V12.138z M41.5,13.533c0,0.689-0.561,1.25-1.25,1.25h-8.051c-0.689,0-1.25-0.561-1.25-1.25v-1.395  c0-0.689,0.561-1.25,1.25-1.25h8.051c0.689,0,1.25,0.561,1.25,1.25V13.533z"/><path d="M27.698,45.104h-8.05c-1.793,0-3.251,1.458-3.251,3.25v1.395c0,1.793,1.458,3.251,3.251,3.251h8.05  c1.793,0,3.251-1.458,3.251-3.251v-1.395C30.949,46.562,29.491,45.104,27.698,45.104z M28.949,49.748  c0,0.689-0.562,1.251-1.251,1.251h-8.05c-0.689,0-1.251-0.562-1.251-1.251v-1.395c0-0.689,0.562-1.25,1.251-1.25h8.05  c0.689,0,1.251,0.561,1.251,1.25V49.748z"/><path d="M53.775,42.591V13.808c0-0.552-0.447-1-1-1s-1,0.448-1,1v28.783c-1.305,0.425-2.258,1.639-2.258,3.084  c0,1.796,1.462,3.258,3.258,3.258s3.258-1.462,3.258-3.258C56.033,44.23,55.081,43.016,53.775,42.591z M52.775,46.933  c-0.693,0-1.258-0.564-1.258-1.258s0.564-1.258,1.258-1.258s1.258,0.564,1.258,1.258S53.469,46.933,52.775,46.933z"/><path d="M61.5,20.484c0.553,0,1-0.448,1-1s-0.447-1-1-1h-3.323v-3.677H61.5c0.553,0,1-0.448,1-1s-0.447-1-1-1h-3.323V12.73  c0-2.978-2.423-5.401-5.401-5.401c-1.828,0-3.444,0.915-4.421,2.308c-5.14-4.36-11.625-6.748-18.405-6.748  c-8.287,0-15.756,3.56-20.964,9.229c-0.018,0.017-0.042,0.024-0.059,0.043c-1.894,2.072-3.446,4.389-4.639,6.869  c0,0.001-0.001,0.002-0.001,0.003c-0.19,0.395-0.37,0.793-0.542,1.196c-0.026,0.061-0.051,0.122-0.076,0.184  c-0.143,0.344-0.281,0.69-0.41,1.039c-0.041,0.109-0.08,0.22-0.119,0.33c-0.109,0.304-0.213,0.609-0.311,0.916  c-0.047,0.147-0.093,0.295-0.138,0.444c-0.083,0.275-0.162,0.552-0.236,0.83c-0.047,0.175-0.093,0.35-0.137,0.527  c-0.064,0.258-0.123,0.516-0.18,0.776c-0.042,0.193-0.085,0.386-0.123,0.581c-0.049,0.251-0.093,0.504-0.135,0.757  c-0.034,0.201-0.069,0.402-0.099,0.604c-0.038,0.258-0.068,0.518-0.099,0.778c-0.023,0.198-0.05,0.394-0.069,0.593  c-0.028,0.291-0.047,0.584-0.067,0.876c-0.011,0.169-0.027,0.336-0.035,0.505c-0.023,0.464-0.035,0.93-0.035,1.398  c0,2.345,0.288,4.647,0.847,6.887c0.019,0.078,0.035,0.158,0.055,0.236c0.081,0.314,0.174,0.625,0.266,0.936  c0.044,0.148,0.083,0.297,0.129,0.443c0.086,0.273,0.182,0.542,0.276,0.813c0.062,0.18,0.121,0.361,0.187,0.539  c0.097,0.263,0.204,0.522,0.309,0.783c0.071,0.177,0.14,0.355,0.215,0.53c0.026,0.06,0.048,0.122,0.074,0.182  c0.008,0.019,0.022,0.033,0.032,0.051C8.268,52.805,18.3,59.839,29.949,59.839c6.341,0,12.515-2.152,17.498-6.038  c1.532,1.008,3.361,1.599,5.328,1.599c5.362,0,9.725-4.362,9.725-9.725c0-3.236-1.643-6.279-4.323-8.077v-0.083H61.5  c0.553,0,1-0.447,1-1s-0.447-1-1-1h-3.323v-3.677H61.5c0.553,0,1-0.448,1-1s-0.447-1-1-1h-3.323v-3.677H61.5c0.553,0,1-0.448,1-1  s-0.447-1-1-1h-3.323v-3.677H61.5z M15.069,25.627h13.487c1.074,0,1.947,0.874,1.947,1.948s-0.873,1.948-1.947,1.948h-7.23  c-2.177,0-3.947,1.771-3.947,3.947s1.771,3.948,3.947,3.948h2.484c1.074,0,1.948,0.874,1.948,1.947c0,1.074-0.874,1.948-1.948,1.948  H5.421c-0.071-0.175-0.141-0.35-0.208-0.527c-0.059-0.155-0.12-0.309-0.176-0.464c-0.091-0.251-0.175-0.505-0.258-0.76  c-0.05-0.152-0.101-0.303-0.148-0.456c-0.082-0.269-0.158-0.541-0.231-0.813c-0.038-0.141-0.079-0.281-0.115-0.423  c-0.073-0.289-0.139-0.582-0.202-0.875c-0.028-0.128-0.059-0.255-0.085-0.384C3.936,36.307,3.884,36,3.833,35.692  c-0.02-0.122-0.044-0.244-0.062-0.367c-0.047-0.314-0.085-0.632-0.121-0.95c-0.013-0.119-0.031-0.237-0.043-0.357  c-0.033-0.33-0.055-0.664-0.076-0.998c-0.007-0.109-0.018-0.216-0.023-0.325c-0.022-0.441-0.034-0.885-0.034-1.331  c0-0.75,0.039-1.496,0.101-2.238c0.008-0.089,0.012-0.179,0.02-0.268c0.067-0.705,0.165-1.404,0.287-2.098  c0.02-0.115,0.04-0.23,0.062-0.344c0.128-0.674,0.282-1.342,0.461-2.002c0.035-0.127,0.072-0.253,0.108-0.379  c0.185-0.644,0.392-1.281,0.626-1.909c0.051-0.136,0.107-0.269,0.16-0.404c0.232-0.594,0.483-1.182,0.758-1.758  c0.076-0.159,0.158-0.314,0.237-0.47c0.243-0.484,0.503-0.96,0.776-1.429c0.131-0.224,0.264-0.448,0.401-0.668  c0.272-0.437,0.56-0.865,0.858-1.287c0.146-0.206,0.29-0.414,0.442-0.616c0.33-0.44,0.68-0.867,1.038-1.287  c0.106-0.125,0.213-0.249,0.322-0.371h8.813c1.073,0,1.947,0.874,1.947,1.948s-0.874,1.948-1.947,1.948h-3.875  c-2.177,0-3.947,1.771-3.947,3.948C11.122,23.856,12.893,25.627,15.069,25.627z M6.335,43.313h17.475  c2.177,0,3.948-1.771,3.948-3.948s-1.771-3.947-3.948-3.947h-2.484c-1.074,0-1.947-0.874-1.947-1.948  c0-1.074,0.873-1.947,1.947-1.947h7.23c2.177,0,3.947-1.771,3.947-3.948s-1.771-3.948-3.947-3.948H15.069  c-1.073,0-1.947-0.874-1.947-1.948s0.874-1.948,1.947-1.948h3.875c2.177,0,3.947-1.771,3.947-3.948s-1.771-3.948-3.947-3.948h-6.851  c4.711-4.311,10.981-6.946,17.856-6.946c6.502,0,12.709,2.367,17.557,6.669c-0.084,0.378-0.132,0.769-0.132,1.172v24.868  c-2.681,1.798-4.323,4.841-4.323,8.077c0,2.657,1.073,5.066,2.806,6.823c-4.569,3.439-10.164,5.341-15.907,5.341  C19.649,57.839,10.71,51.923,6.335,43.313z M60.5,45.675c0,4.26-3.465,7.725-7.725,7.725s-7.725-3.465-7.725-7.725  c0-2.725,1.467-5.276,3.829-6.662c0.306-0.179,0.494-0.508,0.494-0.862V12.73c0-1.875,1.525-3.401,3.401-3.401  s3.401,1.525,3.401,3.401v1.078v22.707v1.636c0,0.354,0.188,0.684,0.494,0.862C59.033,40.398,60.5,42.95,60.5,45.675z"/></svg>