<svg xmlns="http://www.w3.org/2000/svg" xmlns:xlink="http://www.w3.org/1999/xlink" version="1.1" x="0px" y="0px" viewBox="0 0 68 85" style="enable-background:new 0 0 68 68;" xml:space="preserve"><style type="text/css">
	.st0{fill:#010101;}
</style><g><g><path class="st0" d="M13.3,53.7H2c-0.6,0-1,0.4-1,1V66c0,0.6,0.4,1,1,1h11.3c0.6,0,1-0.4,1-1V54.7C14.3,54.2,13.8,53.7,13.3,53.7z     M12.3,65H3v-9.3h9.3V65z"/></g><g><path class="st0" d="M39.6,53.7H28.4c-0.6,0-1,0.4-1,1V66c0,0.6,0.4,1,1,1h11.3c0.6,0,1-0.4,1-1V54.7    C40.6,54.2,40.2,53.7,39.6,53.7z M38.6,65h-9.3v-9.3h9.3V65z"/></g><g><path class="st0" d="M66,53.7H54.7c-0.6,0-1,0.4-1,1V66c0,0.6,0.4,1,1,1H66c0.6,0,1-0.4,1-1V54.7C67,54.2,66.6,53.7,66,53.7z     M65,65h-9.3v-9.3H65V65z"/></g><g><path class="st0" d="M59.4,43v5L57,45.6c-0.4-0.4-1-0.4-1.4,0c-0.4,0.4-0.4,1,0,1.4l4,4.1c0.2,0.2,0.4,0.3,0.7,0.3    c0.3,0,0.5-0.1,0.7-0.3l4-4.1c0.4-0.4,0.4-1,0-1.4c-0.4-0.4-1-0.4-1.4,0L61.4,48v-5c0-4-3.6-7.3-8-7.3H35.1v-4.7h17.6    c4.4,0,8-3.6,8-7.9c0-4.1-3.1-7.4-7.1-7.9c0-0.2,0-0.4,0-0.6c0-6.4-5.3-11.7-11.7-11.7c-3,0-5.9,1.2-8,3.2c-2.2-3.1-5.7-5-9.6-5    c-6.5,0-11.7,5.2-11.7,11.7c0,0.9,0.1,1.9,0.3,2.8c-3.2,1.1-5.4,4.1-5.4,7.5c0,4.4,3.6,7.9,8,7.9h17.6v4.7H14.6    c-4.4,0-8,3.3-8,7.3v5l-2.3-2.3c-0.4-0.4-1-0.4-1.4,0c-0.4,0.4-0.4,1,0,1.4l4,4.1c0.2,0.2,0.4,0.3,0.7,0.3c0.3,0,0.5-0.1,0.7-0.3    l4-4.1c0.4-0.4,0.4-1,0-1.4c-0.4-0.4-1-0.4-1.4,0L8.6,48v-5c0-2.9,2.7-5.3,6-5.3h18.5V48l-2.3-2.3c-0.4-0.4-1-0.4-1.4,0    c-0.4,0.4-0.4,1,0,1.4l4,4.1c0.2,0.2,0.4,0.3,0.7,0.3c0.3,0,0.5-0.1,0.7-0.3l4-4.1c0.4-0.4,0.4-1,0-1.4c-0.4-0.4-1-0.4-1.4,0    L35.1,48V37.6h18.3C56.7,37.6,59.4,40,59.4,43z M9.5,23c0-2.9,2-5.3,4.9-5.8c0.3-0.1,0.5-0.2,0.7-0.5c0.1-0.3,0.2-0.6,0.1-0.8    c-0.4-1-0.5-2.1-0.5-3.2c0-5.3,4.4-9.7,9.7-9.7c3.6,0,6.8,2,8.5,5.1c0.2,0.3,0.4,0.5,0.8,0.5c0.3,0,0.7-0.1,0.9-0.4    C36.3,6,39,4.8,41.9,4.8c5.4,0,9.7,4.3,9.7,9.7c0,0.4,0,0.9-0.1,1.4c0,0.3,0,0.6,0.2,0.8c0.2,0.2,0.5,0.3,0.8,0.3h0.2    c3.3,0,6,2.7,6,5.9c0,3.3-2.7,5.9-6,5.9c-2.7,0,8,0-37.3,0C12.2,28.9,9.5,26.3,9.5,23z"/></g></g></svg>