<svg xmlns="http://www.w3.org/2000/svg" data-name="Layer 1" viewBox="0 0 100 125" x="0px" y="0px"><title>a</title><path d="M82.178,13.8h-.952v-.952A3.45,3.45,0,0,0,77.779,9.4h-.952V8.447A3.45,3.45,0,0,0,73.381,5H17.822a3.45,3.45,0,0,0-3.446,3.446v74.31A3.45,3.45,0,0,0,17.822,86.2h.952v.952A3.45,3.45,0,0,0,22.221,90.6h.952v.952A3.45,3.45,0,0,0,26.619,95H82.178a3.45,3.45,0,0,0,3.447-3.446V17.243A3.45,3.45,0,0,0,82.178,13.8ZM17.822,84.4a1.648,1.648,0,0,1-1.646-1.646V8.447A1.648,1.648,0,0,1,17.822,6.8H73.381a1.648,1.648,0,0,1,1.646,1.646V9.4H22.221a3.45,3.45,0,0,0-3.446,3.446V84.4Zm4.4,4.4a1.648,1.648,0,0,1-1.646-1.646V12.845A1.648,1.648,0,0,1,22.221,11.2H77.779a1.648,1.648,0,0,1,1.647,1.646V13.8H26.619a3.45,3.45,0,0,0-3.446,3.446V88.8Zm61.6,2.752A1.648,1.648,0,0,1,82.178,93.2H26.619a1.648,1.648,0,0,1-1.646-1.646V17.243A1.648,1.648,0,0,1,26.619,15.6H82.178a1.648,1.648,0,0,1,1.647,1.646ZM39.974,42.761a11.214,11.214,0,0,0,8.44-3.5l0,0,0,0,.014-.014c.018-.019.032-.041.048-.062a.911.911,0,0,0,.057-.073c.016-.025.027-.051.041-.077s.029-.053.04-.08.017-.055.025-.083.017-.055.022-.084.006-.057.008-.086.006-.057.006-.086-.005-.056-.008-.085,0-.058-.011-.087-.016-.054-.024-.082a.881.881,0,0,0-.027-.084c-.011-.027-.027-.052-.041-.078a.88.88,0,0,0-.043-.077.909.909,0,0,0-.058-.071c-.017-.02-.031-.042-.05-.061l-7.542-7.542V19.764a.9.9,0,0,0-.9-.9,11.949,11.949,0,0,0,0,23.9Zm-.9-22.055V30.812a.9.9,0,0,0,.264.636l7.157,7.157a9.529,9.529,0,0,1-6.521,2.355,10.148,10.148,0,0,1-.9-20.255ZM49.368,36.8a.9.9,0,0,0,1.423-.2,12.094,12.094,0,0,0-7.244-17.5.9.9,0,0,0-1.148.865v9.49a.9.9,0,0,0,.264.636ZM44.2,21.236a10.3,10.3,0,0,1,5.545,13.4L44.2,29.085ZM55.851,23.6a.9.9,0,0,1,.9-.9H59.82a.9.9,0,0,1,0,1.8H56.751A.9.9,0,0,1,55.851,23.6Zm24.92,0a.9.9,0,0,1-.9.9H63.81a.9.9,0,0,1,0-1.8H79.872A.9.9,0,0,1,80.772,23.6Zm-24.92,4.808a.9.9,0,0,1,.9-.9H59.82a.9.9,0,1,1,0,1.8H56.751A.9.9,0,0,1,55.851,28.408Zm24.92,0a.9.9,0,0,1-.9.9H63.81a.9.9,0,1,1,0-1.8H79.872A.9.9,0,0,1,80.772,28.408Zm-24.92,4.808a.9.9,0,0,1,.9-.9H59.82a.9.9,0,0,1,0,1.8H56.751A.9.9,0,0,1,55.851,33.216Zm24.92,0a.9.9,0,0,1-.9.9H63.81a.9.9,0,0,1,0-1.8H79.872A.9.9,0,0,1,80.772,33.216Zm-24.92,4.808a.9.9,0,0,1,.9-.9H59.82a.9.9,0,0,1,0,1.8H56.751A.9.9,0,0,1,55.851,38.024Zm24.92,0a.9.9,0,0,1-.9.9H63.81a.9.9,0,0,1,0-1.8H79.872A.9.9,0,0,1,80.772,38.024Zm-.9,35.266H77.942v-19.7a.9.9,0,0,0-.9-.9H69.677a.9.9,0,0,0-.9.9v19.7H65.462V60.07a.9.9,0,0,0-.9-.9H57.2a.9.9,0,0,0-.9.9V73.291H52.981V56.829a.9.9,0,0,0-.9-.9H44.715a.9.9,0,0,0-.9.9V73.291H40.5V62.119a.9.9,0,0,0-.9-.9H32.234a.9.9,0,0,0-.9.9V73.291H29.408a.9.9,0,1,0,0,1.8H79.869a.9.9,0,1,0,0-1.8Zm-46.735,0V63.019H38.7V73.291Zm12.481,0V57.729h5.566V73.291Zm12.481,0V60.97h5.566V73.291Zm12.481,0v-18.8h5.566v18.8Zm-9.7-22.571a2.633,2.633,0,0,0-2.156,1.124l-7.7-2.071A2.635,2.635,0,0,0,45.762,50c0,.069.005.137.01.2L37.8,53.828a2.634,2.634,0,1,0,.755,1.843c0-.069-.005-.137-.01-.2l7.974-3.624a2.629,2.629,0,0,0,4.037-.332l7.7,2.071a2.635,2.635,0,1,0,5.208-.752l8.257-5.054a2.626,2.626,0,1,0-.942-1.534L62.52,51.3A2.622,2.622,0,0,0,60.879,50.72ZM35.917,56.507a.836.836,0,1,1,.836-.836A.837.837,0,0,1,35.917,56.507ZM48.4,50.836A.836.836,0,1,1,49.234,50,.837.837,0,0,1,48.4,50.836Zm12.481,3.357a.836.836,0,1,1,.836-.836A.837.837,0,0,1,60.879,54.192ZM73.36,44.881a.836.836,0,1,1-.836.836A.837.837,0,0,1,73.36,44.881ZM41.535,79.052a.9.9,0,0,1-.9.9H29.408a.9.9,0,0,1,0-1.8H40.635A.9.9,0,0,1,41.535,79.052Zm29.966,0a.9.9,0,0,1-.9.9H43.517a.9.9,0,1,1,0-1.8H70.6A.9.9,0,0,1,71.5,79.052Zm9.267,0a.9.9,0,0,1-.9.9H73.387a.9.9,0,1,1,0-1.8h6.482A.9.9,0,0,1,80.769,79.052ZM41.535,83.8a.9.9,0,0,1-.9.9H29.408a.9.9,0,0,1,0-1.8H40.635A.9.9,0,0,1,41.535,83.8Zm29.966,0a.9.9,0,0,1-.9.9H43.517a.9.9,0,1,1,0-1.8H70.6A.9.9,0,0,1,71.5,83.8Zm9.267,0a.9.9,0,0,1-.9.9H73.387a.9.9,0,0,1,0-1.8h6.482A.9.9,0,0,1,80.769,83.8ZM41.535,88.543a.9.9,0,0,1-.9.9H29.408a.9.9,0,1,1,0-1.8H40.635A.9.9,0,0,1,41.535,88.543Zm29.966,0a.9.9,0,0,1-.9.9H43.517a.9.9,0,1,1,0-1.8H70.6A.9.9,0,0,1,71.5,88.543Zm9.267,0a.9.9,0,0,1-.9.9H73.387a.9.9,0,0,1,0-1.8h6.482A.9.9,0,0,1,80.769,88.543Z"/></svg>