<svg xmlns="http://www.w3.org/2000/svg" viewBox="0 0 100 125" x="0px" y="0px"><defs><style>.cls-1{fill-rule:evenodd;}</style></defs><g data-name="Layer 2"><g data-name="Layer_1"><g data-name=" 470042224"><path class="cls-1" d="M89.78,74.17H10.27A5.27,5.27,0,0,1,5.05,69V15.28a5.23,5.23,0,0,1,5.22-5.17H89.78A5.22,5.22,0,0,1,95,15.28V69A5.26,5.26,0,0,1,89.78,74.17ZM10.27,12.7a2.6,2.6,0,0,0-2.63,2.58V69a2.61,2.61,0,0,0,2.63,2.64H89.78A2.61,2.61,0,0,0,92.42,69V15.28a2.6,2.6,0,0,0-2.64-2.58Z"/><path class="cls-1" d="M39.8,89.89a.45.45,0,0,1-.32-.11,1.37,1.37,0,0,1-.95-1.53l4-15.71a1.34,1.34,0,0,1,1.53-1A1.3,1.3,0,0,1,45,73.12l-3.9,15.82A1.29,1.29,0,0,1,39.8,89.89Zm20.4,0a1.29,1.29,0,0,1-1.26-1L55.09,73.22A1.28,1.28,0,0,1,56,71.64a1.36,1.36,0,0,1,1.53,1L61.41,88.3a1.29,1.29,0,0,1-.94,1.59Z"/><path class="cls-1" d="M69.38,89.89H30.57a1.32,1.32,0,1,1,0-2.64H69.38a1.32,1.32,0,0,1,0,2.64Z"/><path class="cls-1" d="M93.68,64.21H6.32a1.32,1.32,0,0,1,0-2.64H93.68a1.32,1.32,0,0,1,0,2.64Z"/><path class="cls-1" d="M86.2,69.17H83.66a1.32,1.32,0,0,1,0-2.64H86.2a1.32,1.32,0,0,1,0,2.64Z"/><path class="cls-1" d="M31.15,64.21a1.31,1.31,0,0,1-1.32-1.32V39H15.23V62.89a1.32,1.32,0,1,1-2.64,0V37.69a1.31,1.31,0,0,1,1.32-1.32H31.1a1.31,1.31,0,0,1,1.32,1.32v25.2A1.24,1.24,0,0,1,31.15,64.21Z"/><path class="cls-1" d="M31.15,39a1.31,1.31,0,0,1-1.32-1.32V34.53L22.4,20.66,15.18,34.53v3.16A1.31,1.31,0,0,1,13.86,39a1.18,1.18,0,0,1-1.16-1.32V34.16a1.94,1.94,0,0,1,.1-.58l8.49-16.24a1.26,1.26,0,0,1,1.11-.64,1.37,1.37,0,0,1,1.16.64l8.7,16.29a1.47,1.47,0,0,1,.16.63v3.43A1.24,1.24,0,0,1,31.15,39Z"/><path class="cls-1" d="M22.45,27.2a14.36,14.36,0,0,1-4.22-.64,1.42,1.42,0,0,1-.89-1.63A1.39,1.39,0,0,1,19,24.09a12.3,12.3,0,0,0,7,0,1.27,1.27,0,0,1,1.59.84,1.22,1.22,0,0,1-.85,1.63A13.92,13.92,0,0,1,22.45,27.2Z"/><path class="cls-1" d="M19.24,64.21a1.31,1.31,0,0,1-1.32-1.32V42.64a1.32,1.32,0,0,1,2.63,0V62.89A1.3,1.3,0,0,1,19.24,64.21Z"/><path class="cls-1" d="M25.83,64.21a1.31,1.31,0,0,1-1.32-1.32V42.64a1.32,1.32,0,0,1,2.63,0V62.89A1.3,1.3,0,0,1,25.83,64.21Z"/><path class="cls-1" d="M79,64.21a1.31,1.31,0,0,1-1.32-1.32V53.4a1.32,1.32,0,0,1,2.64,0v9.49A1.31,1.31,0,0,1,79,64.21Zm-18.5,0a1.31,1.31,0,0,1-1.32-1.32V53.4a1.32,1.32,0,1,1,2.63,0v9.49A1.3,1.3,0,0,1,60.47,64.21Z"/><path class="cls-1" d="M79,54.72H60.47A1.23,1.23,0,0,1,59.36,54l-7-12.49a1.31,1.31,0,0,1,.1-1.37L68.69,17.23a1.14,1.14,0,0,1,1-.53h0a1.22,1.22,0,0,1,1,.53l16.4,23a1.47,1.47,0,0,1,0,1.42l-7.06,12.5A1.13,1.13,0,0,1,79,54.72ZM61.2,52.14h17L84.61,41,69.75,20.13,54.93,41Z"/><path class="cls-1" d="M69.75,37a1.31,1.31,0,0,1-1.32-1.32V17.92a1.34,1.34,0,0,1,1.32-1.32A1.29,1.29,0,0,1,71,17.92V35.69A1.25,1.25,0,0,1,69.75,37Z"/><path class="cls-1" d="M69.75,43.44A4.49,4.49,0,1,1,74.28,39,4.41,4.41,0,0,1,69.75,43.44Zm0-6.49a1.93,1.93,0,1,0,2,1.95A2,2,0,0,0,69.75,37Z"/><path class="cls-1" d="M79,59.46H67.64a1.32,1.32,0,1,1,0-2.63H79a1.32,1.32,0,1,1,0,2.63Z"/><path class="cls-1" d="M45.49,64.21H41a1.22,1.22,0,0,1-1.21-1.16l-2-22.83a1.21,1.21,0,0,1,.37-.95,1.73,1.73,0,0,1,1-.42h8.33a1.24,1.24,0,0,1,1,.42,1.66,1.66,0,0,1,.37.95l-1.9,22.83A1.32,1.32,0,0,1,45.49,64.21Zm-3.37-2.58h2.21L46,41.38H40.43Z"/><path class="cls-1" d="M47.39,41.38H39A1.47,1.47,0,0,1,38,41a1.26,1.26,0,0,1-.26-1.11l1.58-8.17a1.49,1.49,0,0,1,.9-.95,1,1,0,0,1,1.21.32,2.88,2.88,0,0,0,3.69.26,1.54,1.54,0,0,1,1.16-.16,1.39,1.39,0,0,1,.74,1l1.69,7.75A1.31,1.31,0,0,1,48.34,41,1.1,1.1,0,0,1,47.39,41.38Zm-6.8-2.53h5.27l-1-4.59A5.29,5.29,0,0,1,41.54,34Z"/><path class="cls-1" d="M43.54,34.37c-2.42,0-5.27-1.69-6.54-6.49-1.31-5.64,3.06-9.65,5.64-11a1.11,1.11,0,0,1,1.32.06,1.27,1.27,0,0,1,.58,1.16,6.7,6.7,0,0,0,4.17,6.8A1.18,1.18,0,0,1,49.6,26c.27,4.9-2.42,7.91-5.37,8.33Zm-1.42-14c-1.53,1.32-3.43,3.75-2.64,7,.74,3.06,2.53,4.8,4.43,4.54,1.58-.21,3.06-2,3.11-4.91A9.43,9.43,0,0,1,42.12,20.34Z"/></g></g></g></svg>