<svg xmlns="http://www.w3.org/2000/svg" data-name="Layer 1" viewBox="0 0 95 118.75" x="0px" y="0px"><defs><style>.cls-1{fill-rule:evenodd;}</style></defs><title>a</title><path class="cls-1" d="M48.555,18.569A28.521,28.521,0,0,1,66.979,26.2L77.658,15.522a7.113,7.113,0,1,1,1.492,1.492L68.471,27.693A28.516,28.516,0,0,1,76.1,46.117h5.733a5.38,5.38,0,1,1,0,2.11H76.1a28.521,28.521,0,0,1-7.632,18.425l11.61,11.609a5.814,5.814,0,1,1-1.492,1.492l-11.61-11.61a28.511,28.511,0,0,1-18.424,7.632v5.733a5.38,5.38,0,1,1-2.11,0V75.775a28.511,28.511,0,0,1-18.424-7.632L17.342,78.822a7.121,7.121,0,1,1-1.492-1.491L26.529,66.652A28.521,28.521,0,0,1,18.9,48.227H13.164a5.383,5.383,0,1,1,0-2.11H18.9a28.516,28.516,0,0,1,7.632-18.424l-11.61-11.61a5.809,5.809,0,1,1,1.492-1.491L28.021,26.2a28.521,28.521,0,0,1,18.424-7.632v-6.4a4.726,4.726,0,1,1,2.11,0v6.4Zm-1.055,3.4a25.2,25.2,0,1,0,17.82,7.381A25.125,25.125,0,0,0,47.5,21.971Zm16.329,8.872a23.094,23.094,0,1,0,6.763,16.329,23.024,23.024,0,0,0-6.763-16.329Zm-29.01,9.739V54.765L46.445,60.3V46.112l-11.626-5.53ZM48.555,60.3l11.626-5.53V40.582l-11.626,5.53V60.3Zm13.733-21.38a1.051,1.051,0,0,0-.6-.951L47.952,31.432a1.049,1.049,0,0,0-.9,0L33.317,37.963a1.053,1.053,0,0,0-.6.952h0V55.429a1.054,1.054,0,0,0,.67.982l13.671,6.5a1.049,1.049,0,0,0,.9,0L61.685,56.38a1.051,1.051,0,0,0,.6-.951h0V38.915Zm-3.5,0L47.5,33.547,36.214,38.915,47.5,44.283l11.286-5.368ZM9,8.67A3.709,3.709,0,1,0,11.62,7.585,3.7,3.7,0,0,0,9,8.67ZM6.614,83.052A5.005,5.005,0,1,0,8.08,79.513a4.99,4.99,0,0,0-1.466,3.539ZM86,85.674a3.709,3.709,0,1,0-2.622,1.085A3.7,3.7,0,0,0,86,85.674Zm2.384-74.382a5.005,5.005,0,1,0-1.466,3.54,4.994,4.994,0,0,0,1.466-3.54ZM4.61,47.172a3.273,3.273,0,1,0,.958-2.315,3.268,3.268,0,0,0-.958,2.315ZM45.185,89.1a3.275,3.275,0,1,0-.959-2.316,3.265,3.265,0,0,0,.959,2.316ZM89.432,49.488a3.277,3.277,0,1,0-2.316.958,3.269,3.269,0,0,0,2.316-.958ZM49.352,5.7a2.621,2.621,0,1,0,.766,1.852A2.611,2.611,0,0,0,49.352,5.7Zm16.9,22.721a26.514,26.514,0,1,0,7.765,18.747A26.432,26.432,0,0,0,66.248,28.425Z"/></svg>