<svg xmlns="http://www.w3.org/2000/svg" data-name="Layer 1" viewBox="0 0 32 40" x="0px" y="0px"><title>Ceo, Company, Founder, Team, Tree</title><path d="M12.23,15h7.53A2.24,2.24,0,0,0,22,12.77v-.29a5.47,5.47,0,0,0-2.14-4.34,4.93,4.93,0,0,1-7.71,0A5.47,5.47,0,0,0,10,12.48v.29A2.24,2.24,0,0,0,12.23,15Z"/><path d="M28.86,24.14a4.93,4.93,0,0,1-7.71,0A5.47,5.47,0,0,0,19,28.48v.29A2.24,2.24,0,0,0,21.23,31h7.53A2.24,2.24,0,0,0,31,28.77v-.29A5.47,5.47,0,0,0,28.86,24.14Z"/><path d="M10.86,24.14a4.93,4.93,0,0,1-7.71,0A5.47,5.47,0,0,0,1,28.48v.29A2.24,2.24,0,0,0,3.23,31h7.53A2.24,2.24,0,0,0,13,28.77v-.29A5.47,5.47,0,0,0,10.86,24.14Z"/><circle cx="16" cy="5" r="4"/><circle cx="7" cy="21" r="4"/><circle cx="25" cy="21" r="4"/><path d="M19.36,23A1,1,0,0,0,19,21.64l-2-1.21V18a1,1,0,0,0-2,0v2.43l-2,1.21a1,1,0,0,0,1,1.71l2-1.19,2,1.19A1,1,0,0,0,19.36,23Z"/><text x="0" y="47" fill="#000000" font-size="5px" font-weight="bold" font-family="'Helvetica Neue', Helvetica, Arial-Unicode, Arial, Sans-serif">Created by Numeralia Vita Zein</text><text x="0" y="52" fill="#000000" font-size="5px" font-weight="bold" font-family="'Helvetica Neue', Helvetica, Arial-Unicode, Arial, Sans-serif">from the Noun Project</text></svg>