<svg xmlns="http://www.w3.org/2000/svg" xmlns:xlink="http://www.w3.org/1999/xlink" version="1.1" x="0px" y="0px" viewBox="0 0 450 562.5" style="enable-background:new 0 0 450 450;" xml:space="preserve"><g><g><path d="M440,332.2H10c-2.8,0-5-2.2-5-5s2.2-5,5-5h430c2.8,0,5,2.2,5,5S442.8,332.2,440,332.2z"/></g><g><path d="M409.1,373.9H40.9C21.1,373.9,5,357.8,5,338V116.5c0-19.8,16.1-35.9,35.9-35.9h40.4c2.8,0,5,2.2,5,5s-2.2,5-5,5H40.9    c-14.3,0-25.9,11.6-25.9,25.9V338c0,14.3,11.6,25.9,25.9,25.9h368.2c14.3,0,25.9-11.6,25.9-25.9V116.5c0-14.3-11.6-25.9-25.9-25.9    h-40.4c-2.8,0-5-2.2-5-5s2.2-5,5-5h40.4c19.8,0,35.9,16.1,35.9,35.9V338C445,357.8,428.9,373.9,409.1,373.9z"/></g><g><path d="M264.1,433.6c-1.8,0-3.5-1-4.4-2.7c-11.1-21.1-11.1-42.2,0-64.3c1.2-2.5,4.2-3.5,6.7-2.2c2.5,1.2,3.5,4.2,2.2,6.7    c-9.7,19.3-9.7,36.8,0,55.2c1.3,2.4,0.3,5.5-2.1,6.8C265.7,433.4,264.9,433.6,264.1,433.6z M185.9,433.6c-0.8,0-1.6-0.2-2.3-0.6    c-2.4-1.3-3.4-4.3-2.1-6.8c9.6-18.3,9.6-35.9,0-55.2c-1.2-2.5-0.2-5.5,2.2-6.7c2.5-1.2,5.5-0.2,6.7,2.2    c11.1,22.1,11.1,43.2,0,64.3C189.4,432.6,187.7,433.6,185.9,433.6z"/></g><g><path d="M287.8,433.6H162.2c-2.8,0-5-2.2-5-5s2.2-5,5-5h125.7c2.8,0,5,2.2,5,5S290.6,433.6,287.8,433.6z"/></g><g><path d="M353.4,299.9H96.7c-11.2,0-20.4-9.1-20.4-20.4V36.8c0-11.2,9.1-20.4,20.4-20.4h256.7c11.2,0,20.4,9.1,20.4,20.4v242.7    C373.7,290.7,364.6,299.9,353.4,299.9z M96.7,26.4c-5.7,0-10.4,4.7-10.4,10.4v242.7c0,5.7,4.7,10.4,10.4,10.4h256.7    c5.7,0,10.4-4.7,10.4-10.4V36.8c0-5.7-4.7-10.4-10.4-10.4H96.7z"/></g><g><path d="M368.7,84.4H81.3c-2.8,0-5-2.2-5-5s2.2-5,5-5h287.5c2.8,0,5,2.2,5,5S371.5,84.4,368.7,84.4z"/></g><path d="M118.3,65.8c-8.5,0-15.4-6.9-15.4-15.4S109.8,35,118.3,35c8.5,0,15.4,6.9,15.4,15.4S126.8,65.8,118.3,65.8z M118.3,45   c-3,0-5.4,2.4-5.4,5.4s2.4,5.4,5.4,5.4s5.4-2.4,5.4-5.4S121.3,45,118.3,45z"/><path d="M159.7,65.8c-8.5,0-15.4-6.9-15.4-15.4S151.2,35,159.7,35c8.5,0,15.4,6.9,15.4,15.4S168.2,65.8,159.7,65.8z M159.7,45   c-3,0-5.4,2.4-5.4,5.4s2.4,5.4,5.4,5.4s5.4-2.4,5.4-5.4S162.7,45,159.7,45z"/><path d="M201.1,65.8c-8.5,0-15.4-6.9-15.4-15.4S192.6,35,201.1,35c8.5,0,15.4,6.9,15.4,15.4S209.6,65.8,201.1,65.8z M201.1,45   c-3,0-5.4,2.4-5.4,5.4s2.4,5.4,5.4,5.4s5.4-2.4,5.4-5.4S204.1,45,201.1,45z"/><g><path d="M300,55.4h-62.6c-2.8,0-5-2.2-5-5s2.2-5,5-5H300c2.8,0,5,2.2,5,5S302.7,55.4,300,55.4z"/></g><g><path d="M342.6,55.4h-17.3c-2.8,0-5-2.2-5-5s2.2-5,5-5h17.3c2.8,0,5,2.2,5,5S345.4,55.4,342.6,55.4z"/></g><g><path d="M334,64.1c-2.8,0-5-2.2-5-5V41.8c0-2.8,2.2-5,5-5s5,2.2,5,5v17.3C339,61.8,336.7,64.1,334,64.1z"/></g><g><path d="M368.7,145.3H202.6c-2.8,0-5-2.2-5-5s2.2-5,5-5h166.2c2.8,0,5,2.2,5,5S371.5,145.3,368.7,145.3z M116.2,145.3h-35    c-2.8,0-5-2.2-5-5s2.2-5,5-5h35c2.8,0,5,2.2,5,5S119,145.3,116.2,145.3z"/></g><g><path d="M159.4,188.5c-26.6,0-48.2-21.6-48.2-48.2s21.6-48.2,48.2-48.2s48.2,21.6,48.2,48.2S186,188.5,159.4,188.5z M159.4,102.2    c-21,0-38.2,17.1-38.2,38.2s17.1,38.2,38.2,38.2s38.2-17.1,38.2-38.2S180.4,102.2,159.4,102.2z"/></g><g><path d="M130.3,177.2c-0.8,0-1.6-0.2-2.3-0.6c-2.5-1.3-3.4-4.3-2.1-6.7c6.4-12.3,18.9-20.1,32.8-20.3c0.4,0,0.9,0,1.3,0    c13.9,0.2,26.5,8,32.9,20.3c1.3,2.4,0.3,5.5-2.1,6.7c-2.4,1.3-5.5,0.3-6.7-2.1c-4.7-9-14-14.7-24.2-14.9c-0.1,0-0.3,0-0.4,0    l-0.2,0c-0.1,0-0.2,0-0.3,0c-10.2,0.2-19.5,5.9-24.1,14.9C133.9,176.2,132.1,177.2,130.3,177.2z"/></g><g><path d="M159.4,159.6c-12.3,0-22.2-10-22.2-22.2s10-22.2,22.2-22.2s22.2,10,22.2,22.2S171.6,159.6,159.4,159.6z M159.4,125.1    c-6.7,0-12.2,5.5-12.2,12.2s5.5,12.2,12.2,12.2s12.2-5.5,12.2-12.2S166.1,125.1,159.4,125.1z"/></g><g><g><path d="M327.1,274.4h-88.2c-11.9,0-21.6-9.7-21.6-21.6v-28.2c0-11.9,9.7-21.6,21.6-21.6h88.2c11.9,0,21.6,9.7,21.6,21.6v28.2     C348.7,264.7,339,274.4,327.1,274.4z M238.9,213.1c-6.4,0-11.6,5.2-11.6,11.6v28.2c0,6.4,5.2,11.6,11.6,11.6h88.2     c6.4,0,11.6-5.2,11.6-11.6v-28.2c0-6.4-5.2-11.6-11.6-11.6H238.9z"/></g><g><path d="M331.4,181.5h-96.8c-2.8,0-5-2.2-5-5s2.2-5,5-5h96.8c2.8,0,5,2.2,5,5S334.2,181.5,331.4,181.5z"/></g><g><g><g><path d="M193,243.7h-86.7c-2.8,0-5-2.2-5-5s2.2-5,5-5H193c2.8,0,5,2.2,5,5S195.8,243.7,193,243.7z"/></g><g><path d="M193,216.7h-86.7c-2.8,0-5-2.2-5-5s2.2-5,5-5H193c2.8,0,5,2.2,5,5S195.8,216.7,193,216.7z"/></g></g><g><path d="M193,270.7h-86.7c-2.8,0-5-2.2-5-5s2.2-5,5-5H193c2.8,0,5,2.2,5,5S195.8,270.7,193,270.7z"/></g></g></g></g></svg>