<svg xmlns="http://www.w3.org/2000/svg" viewBox="0 0 512 640" x="0px" y="0px"><g><path d="M372,0H140a28.031,28.031,0,0,0-28,28V484a28.031,28.031,0,0,0,28,28H372a28.031,28.031,0,0,0,28-28V28A28.031,28.031,0,0,0,372,0Zm12,484a12.01,12.01,0,0,1-12,12H140a12.01,12.01,0,0,1-12-12V464H384Zm0-36H128V64H384Zm0-400H128V28a12.01,12.01,0,0,1,12-12H372a12.01,12.01,0,0,1,12,12Z"/><path d="M240,40h32a8,8,0,0,0,0-16H240a8,8,0,0,0,0,16Z"/><circle cx="256" cy="480" r="8"/><path d="M185.007,331.885A8,8,0,0,0,192,336h32a8,8,0,0,0,6.993-11.885L193.151,256l37.842-68.115A8,8,0,0,0,224,176H192a8,8,0,0,0-6.993,4.115l-40,72a8,8,0,0,0,0,7.77ZM196.707,192h13.7l-33.4,60.115a8,8,0,0,0,0,7.77L210.4,320h-13.7l-35.556-64Z"/><path d="M281.105,332.057A8,8,0,0,0,288,336h32a8,8,0,0,0,6.993-4.115l40-72a8,8,0,0,0,0-7.77l-40-72A8,8,0,0,0,320,176H288a8,8,0,0,0-6.993,11.885L318.849,256l-37.842,68.115A8,8,0,0,0,281.105,332.057Zm53.888-72.172a8,8,0,0,0,0-7.77L301.6,192h13.7l35.556,64-35.556,64H301.6Z"/></g><text x="0" y="527" fill="#000000" font-size="5px" font-weight="bold" font-family="'Helvetica Neue', Helvetica, Arial-Unicode, Arial, Sans-serif">Created by xnimrodx</text><text x="0" y="532" fill="#000000" font-size="5px" font-weight="bold" font-family="'Helvetica Neue', Helvetica, Arial-Unicode, Arial, Sans-serif">from the Noun Project</text></svg>