<svg width="184" height="20" viewBox="0 0 184 20" fill="none" xmlns="http://www.w3.org/2000/svg">
<path d="M24.6434 18.2519V0H36.8815V3.18161H28.4833V7.53069H36.2518V10.7123H28.4833V15.0703H36.9169V18.2519H24.6434Z" fill="black"/>
<path d="M43.6412 10.338V18.2519H39.8634V4.56297H43.4639V6.97814H43.6235C43.925 6.182 44.4305 5.55221 45.1399 5.08879C45.8494 4.61942 46.7096 4.38473 47.7206 4.38473C48.6665 4.38473 49.4913 4.59268 50.1948 5.00858C50.8983 5.42447 51.4452 6.01861 51.8354 6.79099C52.2256 7.55743 52.4207 8.4724 52.4207 9.5359V18.2519H48.6429V10.2132C48.6488 9.37549 48.436 8.72194 48.0044 8.25257C47.5728 7.77726 46.9786 7.5396 46.2219 7.5396C45.7134 7.5396 45.2641 7.64952 44.8739 7.86935C44.4896 8.08918 44.1881 8.41001 43.9694 8.83185C43.7565 9.24775 43.6471 9.74979 43.6412 10.338Z" fill="black"/>
<path d="M59.2825 18.5103C58.4134 18.5103 57.6389 18.3588 56.959 18.0558C56.2791 17.7469 55.7411 17.2924 55.345 16.6923C54.9548 16.0863 54.7597 15.3317 54.7597 14.4286C54.7597 13.6681 54.8986 13.0294 55.1765 12.5125C55.4544 11.9956 55.8327 11.5797 56.3116 11.2648C56.7905 10.95 57.3344 10.7123 57.9434 10.5519C58.5582 10.3915 59.2027 10.2786 59.8766 10.2132C60.6689 10.13 61.3074 10.0528 61.7922 9.98151C62.277 9.90427 62.6287 9.79138 62.8475 9.64285C63.0662 9.49431 63.1756 9.27448 63.1756 8.98336V8.92988C63.1756 8.36545 62.9982 7.92876 62.6435 7.61981C62.2947 7.31086 61.7981 7.15638 61.1537 7.15638C60.4738 7.15638 59.9328 7.30789 59.5308 7.6109C59.1287 7.90797 58.8627 8.28227 58.7326 8.73382L55.2386 8.44863C55.4159 7.61684 55.7648 6.89793 56.285 6.29191C56.8053 5.67995 57.4763 5.21058 58.2981 4.88381C59.1258 4.55109 60.0836 4.38473 61.1714 4.38473C61.9281 4.38473 62.6524 4.47385 63.3441 4.65209C64.0417 4.83034 64.6595 5.10661 65.1975 5.48092C65.7415 5.85522 66.1701 6.33647 66.4834 6.92467C66.7968 7.50692 66.9534 8.20504 66.9534 9.019V18.2519H63.3707V16.3536H63.2643C63.0455 16.7814 62.7529 17.1587 62.3863 17.4855C62.0198 17.8063 61.5793 18.0588 61.065 18.243C60.5506 18.4212 59.9564 18.5103 59.2825 18.5103ZM60.3644 15.8902C60.9201 15.8902 61.4108 15.7803 61.8365 15.5605C62.2622 15.3347 62.5962 15.0317 62.8386 14.6514C63.081 14.2712 63.2022 13.8404 63.2022 13.3592V11.9065C63.084 11.9837 62.9214 12.055 62.7145 12.1204C62.5134 12.1798 62.2858 12.2363 62.0316 12.2897C61.7774 12.3373 61.5232 12.3818 61.2689 12.4234C61.0147 12.4591 60.7841 12.4917 60.5772 12.5214C60.1338 12.5868 59.7466 12.6908 59.4155 12.8334C59.0844 12.976 58.8272 13.1691 58.644 13.4126C58.4607 13.6503 58.369 13.9474 58.369 14.3039C58.369 14.8208 58.5553 15.2159 58.9277 15.4892C59.3061 15.7565 59.785 15.8902 60.3644 15.8902Z" fill="black"/>
<path d="M69.9553 18.2519V0H73.7332V6.86229H73.8484C74.014 6.49392 74.2534 6.11961 74.5668 5.73937C74.886 5.35318 75.2999 5.03234 75.8083 4.77686C76.3227 4.51544 76.9612 4.38473 77.7238 4.38473C78.7171 4.38473 79.6334 4.64615 80.473 5.16899C81.3125 5.68589 81.9835 6.46719 82.486 7.51287C82.9886 8.55261 83.2398 9.85674 83.2398 11.4253C83.2398 12.9522 82.9945 14.2415 82.5038 15.2931C82.019 16.3388 81.3568 17.1319 80.5173 17.6726C79.6837 18.2073 78.7496 18.4747 77.715 18.4747C76.9819 18.4747 76.3581 18.3529 75.8438 18.1093C75.3353 17.8657 74.9185 17.5597 74.5934 17.1914C74.2682 16.8171 74.0199 16.4398 73.8484 16.0595H73.6799V18.2519H69.9553ZM73.6533 11.4074C73.6533 12.2214 73.7657 12.9314 73.9903 13.5374C74.215 14.1434 74.5402 14.6158 74.9658 14.9544C75.3915 15.2872 75.9088 15.4535 76.5178 15.4535C77.1326 15.4535 77.6529 15.2842 78.0786 14.9455C78.5042 14.6009 78.8264 14.1256 79.0452 13.5196C79.2699 12.9076 79.3822 12.2036 79.3822 11.4074C79.3822 10.6172 79.2728 9.92209 79.0541 9.32201C78.8353 8.72194 78.5131 8.25257 78.0874 7.91391C77.6618 7.57525 77.1385 7.40592 76.5178 7.40592C75.9029 7.40592 75.3826 7.56931 74.957 7.89608C74.5372 8.22286 74.215 8.68629 73.9903 9.28637C73.7657 9.88644 73.6533 10.5935 73.6533 11.4074Z" fill="black"/>
<path d="M89.5385 0V18.2519H85.7606V0H89.5385Z" fill="black"/>
<path d="M92.5647 18.2519V4.56297H96.1652V6.97814H96.3248C96.6086 6.17606 97.0816 5.5433 97.7437 5.07987C98.4059 4.61645 99.1981 4.38473 100.12 4.38473C101.055 4.38473 101.85 4.61942 102.506 5.08879C103.162 5.55221 103.6 6.182 103.818 6.97814H103.96C104.238 6.19388 104.741 5.56707 105.468 5.0977C106.201 4.62239 107.067 4.38473 108.066 4.38473C109.337 4.38473 110.369 4.79172 111.161 5.60569C111.959 6.41371 112.358 7.5604 112.358 9.04574V18.2519H108.59V9.79435C108.59 9.03386 108.388 8.46349 107.986 8.08324C107.584 7.70299 107.082 7.51287 106.479 7.51287C105.793 7.51287 105.258 7.7327 104.874 8.17236C104.489 8.60608 104.297 9.17942 104.297 9.89239V18.2519H100.635V9.71414C100.635 9.04277 100.443 8.50805 100.058 8.10997C99.6799 7.7119 99.1804 7.51287 98.5596 7.51287C98.1398 7.51287 97.7615 7.61981 97.4245 7.8337C97.0934 8.04165 96.8303 8.33575 96.6352 8.71599C96.4401 9.0903 96.3426 9.52996 96.3426 10.035V18.2519H92.5647Z" fill="black"/>
<path d="M121.55 18.5193C120.149 18.5193 118.943 18.2341 117.932 17.6637C116.927 17.0874 116.153 16.2734 115.609 15.2218C115.065 14.1642 114.793 12.9136 114.793 11.4698C114.793 10.0617 115.065 8.82591 115.609 7.7624C116.153 6.6989 116.918 5.87008 117.906 5.27594C118.899 4.6818 120.063 4.38473 121.4 4.38473C122.298 4.38473 123.135 4.5303 123.909 4.82142C124.69 5.10661 125.37 5.53736 125.949 6.11367C126.534 6.68999 126.989 7.41483 127.315 8.28822C127.64 9.15566 127.802 10.1716 127.802 11.3361V12.3788H116.3V10.0261H124.246C124.246 9.47946 124.128 8.99524 123.892 8.5734C123.655 8.15156 123.327 7.82182 122.907 7.58416C122.493 7.34057 122.011 7.21877 121.462 7.21877C120.888 7.21877 120.38 7.35245 119.936 7.61981C119.499 7.88123 119.156 8.23474 118.908 8.68035C118.659 9.12001 118.532 9.61017 118.526 10.1508V12.3878C118.526 13.0651 118.65 13.6503 118.899 14.1434C119.153 14.6366 119.511 15.0168 119.972 15.2842C120.433 15.5515 120.98 15.6852 121.612 15.6852C122.032 15.6852 122.416 15.6258 122.765 15.507C123.114 15.3882 123.413 15.2099 123.661 14.9723C123.909 14.7346 124.098 14.4435 124.229 14.0989L127.723 14.3306C127.545 15.1743 127.182 15.911 126.632 16.5408C126.088 17.1646 125.384 17.6518 124.521 18.0024C123.664 18.347 122.674 18.5193 121.55 18.5193Z" fill="black"/>
<path d="M134.046 10.338V18.2519H130.268V4.56297H133.868V6.97814H134.028C134.329 6.182 134.835 5.55221 135.544 5.08879C136.254 4.61942 137.114 4.38473 138.125 4.38473C139.071 4.38473 139.896 4.59268 140.599 5.00858C141.303 5.42447 141.85 6.01861 142.24 6.79099C142.63 7.55743 142.825 8.4724 142.825 9.5359V18.2519H139.047V10.2132C139.053 9.37549 138.84 8.72194 138.409 8.25257C137.977 7.77726 137.383 7.5396 136.626 7.5396C136.118 7.5396 135.668 7.64952 135.278 7.86935C134.894 8.08918 134.592 8.41001 134.374 8.83185C134.161 9.24775 134.051 9.74979 134.046 10.338Z" fill="black"/>
<path d="M153.048 4.56297V7.41483H144.845V4.56297H153.048ZM146.707 1.28334H150.485V14.0454C150.485 14.3959 150.538 14.6692 150.645 14.8653C150.751 15.0554 150.899 15.1891 151.088 15.2664C151.283 15.3436 151.508 15.3822 151.762 15.3822C151.939 15.3822 152.117 15.3674 152.294 15.3377C152.471 15.302 152.607 15.2753 152.702 15.2574L153.296 18.0826C153.107 18.142 152.841 18.2103 152.498 18.2875C152.155 18.3707 151.738 18.4212 151.248 18.4391C150.337 18.4747 149.539 18.3529 148.853 18.0737C148.173 17.7944 147.644 17.3607 147.266 16.7725C146.887 16.1843 146.701 15.4416 146.707 14.5445V1.28334Z" fill="black"/>
<path d="M163.581 9.25072V12.263H155.298V9.25072H163.581Z" fill="black"/>
<path d="M174.045 4.56297V7.41483H165.842V4.56297H174.045ZM167.705 1.28334H171.483V14.0454C171.483 14.3959 171.536 14.6692 171.642 14.8653C171.749 15.0554 171.896 15.1891 172.086 15.2664C172.281 15.3436 172.505 15.3822 172.76 15.3822C172.937 15.3822 173.114 15.3674 173.292 15.3377C173.469 15.302 173.605 15.2753 173.7 15.2574L174.294 18.0826C174.105 18.142 173.839 18.2103 173.496 18.2875C173.153 18.3707 172.736 18.4212 172.245 18.4391C171.335 18.4747 170.537 18.3529 169.851 18.0737C169.171 17.7944 168.642 17.3607 168.263 16.7725C167.885 16.1843 167.699 15.4416 167.705 14.5445V1.28334Z" fill="black"/>
<path d="M183.752 4.56297V7.41483H175.549V4.56297H183.752ZM177.411 1.28334H181.189V14.0454C181.189 14.3959 181.242 14.6692 181.348 14.8653C181.455 15.0554 181.603 15.1891 181.792 15.2664C181.987 15.3436 182.212 15.3822 182.466 15.3822C182.643 15.3822 182.821 15.3674 182.998 15.3377C183.175 15.302 183.311 15.2753 183.406 15.2574L184 18.0826C183.811 18.142 183.545 18.2103 183.202 18.2875C182.859 18.3707 182.442 18.4212 181.951 18.4391C181.041 18.4747 180.243 18.3529 179.557 18.0737C178.877 17.7944 178.348 17.3607 177.97 16.7725C177.591 16.1843 177.405 15.4416 177.411 14.5445V1.28334Z" fill="black"/>
<path d="M17.2849 11.894H9.18188V20H17.2849V11.894Z" fill="black"/>
<path d="M4.03306 20C6.26045 20 8.06611 18.1854 8.06611 15.947C8.06611 13.7086 6.26045 11.894 4.03306 11.894C1.80566 11.894 0 13.7086 0 15.947C0 18.1854 1.80566 20 4.03306 20Z" fill="black"/>
<path d="M17.2849 2.2788H9.18188V10.3848H17.2849V2.2788Z" fill="black"/>
</svg>
