<svg width="277" height="30" viewBox="0 0 277 30" fill="none" xmlns="http://www.w3.org/2000/svg">
<path d="M37.099 27.3778V0H55.5226V4.77241H42.8798V11.296H54.5748V16.0684H42.8798V22.6054H55.576V27.3778H37.099Z" fill="#422C0D"/>
<path d="M65.699 15.507V27.3778H60.0117V6.84446H65.432V10.4672H65.6723C66.1262 9.273 66.8872 8.32832 67.9552 7.63318C69.0233 6.92913 70.3183 6.5771 71.8402 6.5771C73.2643 6.5771 74.5059 6.88902 75.565 7.51287C76.6241 8.13671 77.4474 9.02792 78.0348 10.1865C78.6223 11.3361 78.916 12.7086 78.916 14.3039V27.3778H73.2287V15.3198C73.2376 14.0632 72.9172 13.0829 72.2674 12.3789C71.6177 11.6659 70.7232 11.3094 69.584 11.3094C68.8186 11.3094 68.1422 11.4743 67.5547 11.804C66.9762 12.1338 66.5223 12.615 66.193 13.2478C65.8726 13.8716 65.7079 14.6247 65.699 15.507Z" fill="#422C0D"/>
<path d="M89.2459 27.7655C87.9375 27.7655 86.7716 27.5383 85.7481 27.0837C84.7245 26.6203 83.9146 25.9386 83.3183 25.0384C82.7309 24.1294 82.4372 22.9976 82.4372 21.6429C82.4372 20.5022 82.6463 19.5441 83.0646 18.7688C83.4829 17.9934 84.0526 17.3696 84.7735 16.8973C85.4944 16.4249 86.3132 16.0684 87.23 15.8278C88.1556 15.5872 89.1257 15.4179 90.1404 15.3198C91.333 15.1951 92.2942 15.0792 93.0241 14.9723C93.7539 14.8564 94.2835 14.6871 94.6128 14.4643C94.9421 14.2415 95.1067 13.9117 95.1067 13.475V13.3948C95.1067 12.5482 94.8397 11.8931 94.3057 11.4297C93.7806 10.9663 93.033 10.7346 92.0628 10.7346C91.0393 10.7346 90.2249 10.9618 89.6197 11.4163C89.0145 11.862 88.614 12.4234 88.4182 13.1007L83.1581 12.6729C83.4251 11.4253 83.9502 10.3469 84.7334 9.43787C85.5167 8.51993 86.5268 7.81588 87.764 7.32571C89.01 6.82664 90.4519 6.5771 92.0895 6.5771C93.2288 6.5771 94.3191 6.71078 95.3604 6.97814C96.4106 7.2455 97.3407 7.65992 98.1506 8.22137C98.9695 8.78284 99.6147 9.50471 100.086 10.387C100.558 11.2604 100.794 12.3076 100.794 13.5285V27.3778H95.4004V24.5304H95.2402C94.9109 25.1721 94.4704 25.738 93.9185 26.2282C93.3667 26.7094 92.7037 27.0882 91.9293 27.3645C91.155 27.6318 90.2605 27.7655 89.2459 27.7655ZM90.8746 23.8353C91.7113 23.8353 92.45 23.6704 93.0908 23.3407C93.7316 23.002 94.2345 22.5475 94.5994 21.9771C94.9643 21.4068 95.1468 20.7606 95.1468 20.0388V17.8598C94.9688 17.9756 94.724 18.0826 94.4125 18.1806C94.1099 18.2697 93.7672 18.3544 93.3845 18.4346C93.0018 18.5059 92.6191 18.5727 92.2364 18.6351C91.8537 18.6886 91.5066 18.7376 91.1951 18.7822C90.5275 18.8802 89.9446 19.0362 89.4461 19.25C88.9477 19.4639 88.5606 19.7536 88.2847 20.119C88.0087 20.4755 87.8708 20.9211 87.8708 21.4558C87.8708 22.2311 88.1512 22.8238 88.7119 23.2337C89.2815 23.6348 90.0024 23.8353 90.8746 23.8353Z" fill="#422C0D"/>
<path d="M105.313 27.3778V0H111V10.2934H111.174C111.423 9.74088 111.784 9.17942 112.255 8.60905C112.736 8.02977 113.359 7.54851 114.124 7.1653C114.899 6.77317 115.86 6.5771 117.008 6.5771C118.503 6.5771 119.883 6.96923 121.147 7.75349C122.411 8.52884 123.421 9.70078 124.177 11.2693C124.934 12.8289 125.312 14.7851 125.312 17.1379C125.312 19.4283 124.943 21.3622 124.204 22.9396C123.474 24.5082 122.477 25.6979 121.214 26.5089C119.959 27.311 118.552 27.712 116.995 27.712C115.891 27.712 114.952 27.5294 114.178 27.164C113.412 26.7986 112.785 26.3396 112.295 25.787C111.806 25.2256 111.432 24.6597 111.174 24.0893H110.92V27.3778H105.313ZM110.88 17.1112C110.88 18.3321 111.049 19.3971 111.388 20.3061C111.726 21.2152 112.215 21.9237 112.856 22.4317C113.497 22.9307 114.276 23.1803 115.192 23.1803C116.118 23.1803 116.901 22.9263 117.542 22.4183C118.183 21.9014 118.668 21.1884 118.997 20.2794C119.336 19.3615 119.505 18.3054 119.505 17.1112C119.505 15.9258 119.34 14.8831 119.011 13.983C118.681 13.0829 118.196 12.3789 117.556 11.8709C116.915 11.3629 116.127 11.1089 115.192 11.1089C114.267 11.1089 113.484 11.354 112.843 11.8441C112.211 12.3343 111.726 13.0294 111.388 13.9295C111.049 14.8297 110.88 15.8902 110.88 17.1112Z" fill="#422C0D"/>
<path d="M134.794 0V27.3778H129.107V0H134.794Z" fill="#422C0D"/>
<path d="M139.35 27.3778V6.84446H144.77V10.4672H145.011C145.438 9.26409 146.15 8.31495 147.147 7.61981C148.144 6.92467 149.336 6.5771 150.725 6.5771C152.131 6.5771 153.328 6.92913 154.316 7.63318C155.304 8.32832 155.963 9.273 156.292 10.4672H156.505C156.924 9.29082 157.68 8.3506 158.775 7.64655C159.879 6.93358 161.183 6.5771 162.687 6.5771C164.6 6.5771 166.153 7.18758 167.346 8.40853C168.548 9.62057 169.148 11.3406 169.148 13.5686V27.3778H163.474V14.6915C163.474 13.5508 163.172 12.6952 162.567 12.1249C161.961 11.5545 161.205 11.2693 160.297 11.2693C159.265 11.2693 158.459 11.599 157.881 12.2585C157.302 12.9091 157.013 13.7691 157.013 14.8386V27.3778H151.499V14.5712C151.499 13.5642 151.21 12.7621 150.631 12.165C150.062 11.5679 149.31 11.2693 148.375 11.2693C147.743 11.2693 147.173 11.4297 146.666 11.7506C146.168 12.0625 145.772 12.5036 145.478 13.074C145.184 13.6355 145.037 14.2949 145.037 15.0525V27.3778H139.35Z" fill="#422C0D"/>
<path d="M182.986 27.7789C180.877 27.7789 179.061 27.3511 177.539 26.4956C176.026 25.6311 174.86 24.4101 174.041 22.8327C173.222 21.2464 172.813 19.3704 172.813 17.2047C172.813 15.0926 173.222 13.2389 174.041 11.6436C174.86 10.0483 176.013 8.80511 177.499 7.91391C178.994 7.0227 180.748 6.5771 182.759 6.5771C184.112 6.5771 185.371 6.79545 186.537 7.23214C187.712 7.65992 188.736 8.30604 189.608 9.17051C190.489 10.035 191.174 11.1223 191.664 12.4323C192.153 13.7335 192.398 15.2574 192.398 17.0042V18.5683H175.083V15.0391H187.045C187.045 14.2192 186.867 13.4929 186.511 12.8601C186.155 12.2273 185.661 11.7327 185.029 11.3762C184.406 11.0108 183.68 10.8282 182.853 10.8282C181.989 10.8282 181.224 11.0287 180.556 11.4297C179.898 11.8218 179.381 12.3521 179.008 13.0205C178.634 13.68 178.442 14.4153 178.434 15.2263V18.5816C178.434 19.5976 178.62 20.4755 178.994 21.2152C179.377 21.9549 179.915 22.5252 180.61 22.9263C181.304 23.3273 182.127 23.5278 183.08 23.5278C183.711 23.5278 184.29 23.4387 184.815 23.2605C185.34 23.0822 185.79 22.8149 186.163 22.4584C186.537 22.1019 186.822 21.6652 187.018 21.1483L192.278 21.4959C192.011 22.7614 191.464 23.8665 190.636 24.8112C189.817 25.7469 188.758 26.4777 187.458 27.0035C186.168 27.5204 184.677 27.7789 182.986 27.7789Z" fill="#422C0D"/>
<path d="M201.797 15.507V27.3778H196.11V6.84446H201.53V10.4672H201.77C202.224 9.273 202.985 8.32832 204.053 7.63318C205.121 6.92913 206.416 6.5771 207.938 6.5771C209.362 6.5771 210.604 6.88902 211.663 7.51287C212.722 8.13671 213.545 9.02792 214.133 10.1865C214.72 11.3361 215.014 12.7086 215.014 14.3039V27.3778H209.327V15.3198C209.335 14.0632 209.015 13.0829 208.365 12.3789C207.716 11.6659 206.821 11.3094 205.682 11.3094C204.916 11.3094 204.24 11.4743 203.653 11.804C203.074 12.1338 202.62 12.615 202.291 13.2478C201.97 13.8716 201.806 14.6247 201.797 15.507Z" fill="#422C0D"/>
<path d="M230.404 6.84446V11.1223H218.054V6.84446H230.404ZM220.858 1.92501H226.545V21.0681C226.545 21.5939 226.625 22.0039 226.786 22.298C226.946 22.5832 227.168 22.7837 227.453 22.8995C227.747 23.0154 228.085 23.0733 228.468 23.0733C228.735 23.0733 229.002 23.051 229.269 23.0065C229.536 22.953 229.74 22.9129 229.883 22.8862L230.777 27.1239C230.493 27.213 230.092 27.3155 229.576 27.4313C229.06 27.5561 228.432 27.6318 227.693 27.6586C226.323 27.712 225.121 27.5294 224.089 27.1105C223.065 26.6916 222.269 26.041 221.699 25.1587C221.129 24.2765 220.849 23.1624 220.858 21.8167V1.92501Z" fill="#422C0D"/>
<path d="M246.261 13.8761V18.3945H233.791V13.8761H246.261Z" fill="#422C0D"/>
<path d="M262.014 6.84446V11.1223H249.665V6.84446H262.014ZM252.469 1.92501H258.156V21.0681C258.156 21.5939 258.236 22.0039 258.396 22.298C258.556 22.5832 258.779 22.7837 259.064 22.8995C259.357 23.0154 259.696 23.0733 260.078 23.0733C260.345 23.0733 260.612 23.051 260.879 23.0065C261.146 22.953 261.351 22.9129 261.493 22.8862L262.388 27.1239C262.103 27.213 261.703 27.3155 261.186 27.4313C260.67 27.5561 260.043 27.6318 259.304 27.6586C257.933 27.712 256.732 27.5294 255.699 27.1105C254.676 26.6916 253.879 26.041 253.31 25.1587C252.74 24.2765 252.46 23.1624 252.469 21.8167V1.92501Z" fill="#422C0D"/>
<path d="M276.626 6.84446V11.1223H264.277V6.84446H276.626ZM267.081 1.92501H272.768V21.0681C272.768 21.5939 272.848 22.0039 273.008 22.298C273.168 22.5832 273.391 22.7837 273.676 22.8995C273.969 23.0154 274.308 23.0733 274.69 23.0733C274.957 23.0733 275.224 23.051 275.491 23.0065C275.758 22.953 275.963 22.9129 276.105 22.8862L277 27.1239C276.715 27.213 276.315 27.3155 275.798 27.4313C275.282 27.5561 274.655 27.6318 273.916 27.6586C272.545 27.712 271.344 27.5294 270.311 27.1105C269.288 26.6916 268.491 26.041 267.922 25.1587C267.352 24.2765 267.072 23.1624 267.081 21.8167V1.92501Z" fill="#422C0D"/>
<path d="M26.0214 17.841H13.8227V30H26.0214V17.841Z" fill="#422C0D"/>
<path d="M6.0715 30C9.4247 30 12.143 27.2781 12.143 23.9205C12.143 20.5628 9.4247 17.841 6.0715 17.841C2.7183 17.841 0 20.5628 0 23.9205C0 27.2781 2.7183 30 6.0715 30Z" fill="#422C0D"/>
<path d="M26.0214 3.41821H13.8227V15.5772H26.0214V3.41821Z" fill="#422C0D"/>
</svg>
